<svg xmlns="http://www.w3.org/2000/svg" width="22.531" height="21.93" viewBox="0 0 22.531 21.93">
  <defs>
    <style>
      .cls-1 {
        fill: #2ba4e1;
        fill-rule: evenodd;
      }
    </style>
  </defs>
  <path id="Shape_56_copy" data-name="Shape 56 copy" class="cls-1" d="M574.892,3806.35a2.25,2.25,0,0,1-1.594-3.84l7.131-7.13-7.131-7.13a2.252,2.252,0,1,1,3.189-3.18l8.72,8.72a2.243,2.243,0,0,1,0,3.18l-8.72,8.72a2.251,2.251,0,0,1-1.595.66h0Zm6.347-8.72H565.6a2.25,2.25,0,1,1,0-4.5h15.636a2.25,2.25,0,1,1,0,4.5h0Z" transform="translate(-563.344 -3784.41)"/>
</svg>
