<svg id="image" xmlns="http://www.w3.org/2000/svg" width="2500" height="597.03" viewBox="0 0 2500 597.03">
  <defs>
    <style>
      .cls-1 {
        fill: #2f7caa;
      }

      .cls-2 {
        fill: #55a3d1;
        fill-rule: evenodd;
      }
    </style>
  </defs>
  <rect class="cls-1" x="-48" width="2590" height="594"/>
  <path class="cls-2" d="M250.751,9028.8L197.8,9133.75l-0.5.99,0.987,0.5,33.31,16.85,0.986,0.5,0.5-.99,52.945-104.95,0.5-.99-0.986-.5-33.31-16.85-0.987-.5-0.493.99h0Zm-50.478,104.96,51.953-102.98,31.33,15.86-51.947,102.98Zm52.945-104.95,2.311-4.59,31.342,15.86-2.317,4.58-31.336-15.85h0Zm0.836-6.57-3.3,6.56-0.5.99,0.986,0.5,33.305,16.85,0.987,0.5,0.5-.99,3.309-6.56,0.5-.99-0.987-.5-33.31-16.85-0.987-.5Zm-57.09,118.08,2.312-4.58,31.336,15.85-2.312,4.59-31.336-15.86h0Zm0.837-6.57-3.309,6.56-0.5.99,0.986,0.5,33.31,16.85,0.987,0.5,0.5-.99,3.309-6.56,0.5-.98-0.986-.5-33.31-16.86-0.987-.5Zm36.054-71.47L214.7,9100.26l-0.5.99,0.987,0.5,5.139,2.6a6.879,6.879,0,0,0,9.224-3.03l13.963-27.68a6.9,6.9,0,0,0-3.032-9.24l-5.138-2.6-0.987-.5-0.5.98h0Zm-16.686,37.99,18.16-36,4.152,2.1a4.688,4.688,0,0,1,2.057,6.27l-13.964,27.68a4.671,4.671,0,0,1-6.253,2.06Zm11.253-25.13-6.613,13.11-0.5.99,0.987,0.5,2.112,1.07a3.441,3.441,0,0,0,2.644.19h0.006a3.471,3.471,0,0,0,2.012-1.73l4.479-8.87a3.489,3.489,0,0,0,.194-2.65v-0.01a3.505,3.505,0,0,0-1.73-2.02l-2.106-1.06-0.987-.5-0.5.98h0Zm-4.141,13.12,5.616-11.13,1.125,0.57a1.3,1.3,0,0,1,.627.73l0,0.01a1.267,1.267,0,0,1-.077.96l-4.474,8.87a1.275,1.275,0,0,1-.732.63h0a1.2,1.2,0,0,1-.959-0.07Zm46.01-36.19,9.374,4.74,1-1.97-9.379-4.75Zm-6.131,12.15,9.374,4.75,1-1.98-9.374-4.74Zm-6.131,12.15,9.374,4.75,1-1.98-9.38-4.74Zm-6.131,12.16,9.374,4.74,1-1.98-9.379-4.74Zm-6.13,12.15,9.373,4.74,1-1.97-9.379-4.75Zm-6.132,12.15,9.374,4.75,1-1.98-9.379-4.74Zm-6.131,12.15,9.374,4.75,1-1.98-9.374-4.74Zm-6.131,12.16,9.374,4.74,1-1.98-9.374-4.74Z" transform="translate(0 -8928)"/>
  <path class="cls-2" d="M1290.98,9022.58l9.74-5.53,0.74-.42,0.44,0.74,35.7,60.06,0.46,0.77-0.77.44-12.27,6.96-0.77.44-0.42-.79-33.18-61.49-0.41-.75,0.74-.43h0Zm9.86-3.58-8.25,4.69,32.34,59.95,10.72-6.09Zm-26.97-13.71,5.38,9.48a0.464,0.464,0,0,0,.31.24l0.01,0.01a0.532,0.532,0,0,0,.39-0.05l19.88-11.3a0.511,0.511,0,0,0,.25-0.31h0a0.516,0.516,0,0,0-.05-0.4l-5.63-9.94-20.34,11.55a0.552,0.552,0,0,0-.2.72h0Zm3.85,10.34-5.37-9.48a2.278,2.278,0,0,1,.86-3.1l21.09-11.99,0.77-.43,0.43,0.76,6.06,10.71a2.222,2.222,0,0,1,.21,1.72v0.01a2.253,2.253,0,0,1-1.06,1.37l-19.88,11.29a2.246,2.246,0,0,1-1.73.21h0A2.227,2.227,0,0,1,1277.72,9015.63Zm-10.96-7.51,5.89,10.39a2.251,2.251,0,0,1,.21,1.73v0.01a2.242,2.242,0,0,1-1.07,1.37l-5.27,3-0.76.43-0.43-.76-6.76-11.92-0.43-.76,0.76-.44,6.19-3.51a1.175,1.175,0,0,1,.93-0.11v-0.01a1.284,1.284,0,0,1,.74.58h0Zm4.37,11.26-5.63-9.94-4.97,2.83,5.89,10.39,4.51-2.56a0.559,0.559,0,0,0,.25-0.32h0A0.516,0.516,0,0,0,1271.13,9019.38Zm2.74-14.09,5.38,9.48,0.43,0.76-0.76.43-6.6,3.75-0.76.43-0.43-.76-5.37-9.48-0.44-.76,0.76-.44,6.6-3.74,0.76-.43,0.43,0.76h0Zm3.42,9.58-4.5-7.95-5.08,2.88,4.51,7.96Zm17-23.79a26.238,26.238,0,0,1,15.15-3.95,17.533,17.533,0,0,1,12.34,5.93l0.4,0.47-0.29.53-1.38,2.51-0.33.59-0.66-.18a16.169,16.169,0,0,0-8.19.43,43.412,43.412,0,0,0-10.67,4.82l-0.77.47-0.44-.78-5.47-9.66-0.42-.74,0.73-.44h0Zm15.03-2.21a24.455,24.455,0,0,0-13.4,3.27l4.61,8.13a44.189,44.189,0,0,1,10.33-4.55,18.582,18.582,0,0,1,8.44-.58l0.76-1.38A15.877,15.877,0,0,0,1309.32,8988.87Zm-18.48,35.14-9.68-8.38-0.94-.81,1.08-.61,17.2-9.77,1.08-.62,0.22,1.22,2.21,12.62,0.11,0.61-0.53.31-9.74,5.53-0.54.31-0.47-.41h0Zm-7.6-8.89,8.28,7.16,8.67-4.92-1.9-10.79Z" transform="translate(0 -8928)"/>
  <path class="cls-2" d="M2257.65,9041.47l20.88,33.48,0.47,0.74-0.75.47-12.91,8.04-0.74.46-0.47-.74-20.88-33.48-0.46-.74,0.74-.46,12.91-8.05,0.75-.46,0.46,0.74h0Zm18.93,33.66-19.95-31.99-11.43,7.12,19.96,31.99Zm-26.61-26.11,18.4,29.5-1.48.92-18.41-29.49Zm9.42-4.77,17.41,27.92,23.08-14.39-1.02-1.64-7.97,2.46-3.43,1.06,2.55-2.51,5.87-5.79-7.87-12.62-13.72,4.74-4.24,1.47,3.38-2.95,10.75-9.39-1.71-2.74-23.08,14.38h0Zm16.39,29.59-18.34-29.4-0.47-.75,0.74-.46,24.58-15.31,0.74-.46,0.46,0.74,2.57,4.12,0.4,0.63-0.57.49-7.94,6.93,10.15-3.51,0.66-.23,0.36,0.6,8.61,13.79,0.37,0.6-0.5.49-3.81,3.77,5.19-1.61,0.65-.2,0.36,0.57,1.84,2.96,0.47,0.75-0.74.46-24.58,15.31-0.74.46Zm-21.3-27.63,18.4,29.5-1.48.92-18.4-29.5Zm0.7,20.05,9.32,14.93a0.878,0.878,0,0,1-1.38,1.07c-0.21-.2-0.42-0.38-0.64-0.56-4.28-3.5-10.13-3.94-15.82-2.55a31.487,31.487,0,0,0-14.99,8.59c-0.32.35-.63,0.7-0.92,1.05-4.53,5.53-8.78,9.54-13,11.35-4.38,1.87-8.67,1.43-13.09-2.05l0.54-.69-0.55.69a0.919,0.919,0,0,1-.32-0.57c-1.15-5.47.34-9.5,3.94-12.59,3.48-2.99,8.94-5.04,15.91-6.67,0.44-.11.9-0.23,1.36-0.37a31.418,31.418,0,0,0,14.31-9.67c3.75-4.49,5.93-9.93,4.67-15.32-0.07-.28-0.15-0.57-0.24-0.86l0.84-.26-0.84.26a0.874,0.874,0,0,1,1.59-.7l9.31,14.92h0Zm5.58,12.25-7.07-11.33-7.07-11.33c0.06,4.84-2.12,9.53-5.43,13.5a33.334,33.334,0,0,1-15.14,10.22c-0.49.14-.98,0.28-1.47,0.39-6.7,1.57-11.93,3.51-15.18,6.3-3.04,2.61-4.32,6.02-3.41,10.65,3.76,2.85,7.38,3.2,11.07,1.62,3.93-1.69,7.98-5.52,12.33-10.85,0.32-.39.66-0.77,1-1.14a33.352,33.352,0,0,1,15.85-9.09C2251.27,9076.22,2256.44,9076.33,2260.76,9078.51Z" transform="translate(0 -8928)"/>
  <path class="cls-2" d="M1815.72,9084.61l-9.72,18.08a1.834,1.834,0,0,0,.73,2.47l51.41,27.69a2.376,2.376,0,0,0,.29.13,2.134,2.134,0,0,0,1.25.03,1.275,1.275,0,0,0,.8-0.6h0a0.766,0.766,0,0,0,.07-0.17l5.25-15.46a8.681,8.681,0,0,0,.24-5.24,5.56,5.56,0,0,0-2.73-3.37l-45.13-24.31a1.857,1.857,0,0,0-1.38-.14h-0.01a1.8,1.8,0,0,0-1.07.89h0Zm-11.26,17.25,9.71-18.08a3.582,3.582,0,0,1,2.12-1.73h0.01a3.575,3.575,0,0,1,2.71.27l45.13,24.31a7.226,7.226,0,0,1,3.57,4.4,10.479,10.479,0,0,1-.26,6.32l-5.24,15.46a2.8,2.8,0,0,1-.19.43v-0.01a2.982,2.982,0,0,1-1.85,1.45,3.768,3.768,0,0,1-2.3-.05,3.147,3.147,0,0,1-.56-0.24l-51.4-27.68A3.582,3.582,0,0,1,1804.46,9101.86Zm15.13-11.19,40.66,21.9-0.82,1.54-40.67-21.9Zm-8.45-6.05-7.66,14.25-0.41.77-0.77-.41-7.76-4.18a6.546,6.546,0,0,1-3.16-3.88h0.01a6.474,6.474,0,0,1,.49-4.97l2.31-4.3a6.538,6.538,0,0,1,8.84-2.65l7.76,4.18,0.77,0.41-0.42.78h0Zm-8.78,12.65,6.83-12.71-7-3.77a4.8,4.8,0,0,0-6.46,1.94l-2.31,4.31a4.721,4.721,0,0,0-.36,3.63h0a4.761,4.761,0,0,0,2.3,2.83ZM1775.29,9073l19.14,10.31-1.25,2.32-19.14-10.32Zm77.9,67.08-20.82-11.2a4.367,4.367,0,0,1-2.1-2.59h0a4.346,4.346,0,0,1,.33-3.32l1.65-3.07,0.42-.77,0.77,0.41,22.83,12.3,0.65,0.35-0.24.7-2.25,6.7-0.34.99-0.9-.5h0Zm-19.99-12.75,19.9,10.72,1.69-5.02-21.41-11.53-1.24,2.3a2.6,2.6,0,0,0-.19,1.98v0.01A2.6,2.6,0,0,0,1833.2,9127.33Zm19.33,12.4-14.7-7.92-9.1,26.78a6.394,6.394,0,0,0-.17,3.83,3.932,3.932,0,0,0,1.96,2.42l6.76,3.65a4.928,4.928,0,0,0,.71.31,5.107,5.107,0,0,0,3.02.07,3.454,3.454,0,0,0,2.13-1.63,2.668,2.668,0,0,0,.2-0.46l9.19-27.05h0Zm-14.78-9.95,16.27,8.76,0.65,0.35-0.24.7-9.43,27.76a4.745,4.745,0,0,1-.32.72,5.192,5.192,0,0,1-3.17,2.48,6.85,6.85,0,0,1-4.08-.1,5.357,5.357,0,0,1-.98-0.42l-6.76-3.64a5.693,5.693,0,0,1-2.81-3.46,8.119,8.119,0,0,1,.2-4.91l9.43-27.75,0.33-.98Z" transform="translate(0 -8928)"/>
  <path class="cls-2" d="M136.158,9368.75l16.005,7.84a24.13,24.13,0,0,1,11.012,32.18l-10.182,20.81-0.387.78-0.781-.38-41.214-20.2a8.283,8.283,0,0,1-3.78-11.05l11.711-23.94a13.191,13.191,0,0,1,17.616-6.04h0Zm15.236,9.42-16.009-7.85a11.451,11.451,0,0,0-15.272,5.24L108.4,9399.5a6.538,6.538,0,0,0,2.977,8.71l40.427,19.81L161.6,9408A22.362,22.362,0,0,0,151.394,9378.17Zm5.287,27.28a16.425,16.425,0,0,0-7.482-21.87l-17.186-8.43a4.234,4.234,0,0,0-5.625,1.93l-1.572-.77a5.994,5.994,0,0,1,7.965-2.73l17.186,8.42a18.181,18.181,0,0,1,8.29,24.22Zm22.016,43.31,3.184-6.51-29.086-14.26,1.155-2.36,30.262,14.83,1.181,0.58-0.575,1.18-3.763,7.69Zm-35.9-61.42a13.46,13.46,0,1,1-10.288-.65,13.472,13.472,0,0,1,10.288.65h0Zm5.168,8.31a11.75,11.75,0,1,0-.562,8.96A11.729,11.729,0,0,0,147.96,9395.65Z" transform="translate(0 -8928)"/>
  <path class="cls-2" d="M1039.91,9502.47l68.18-47.3a4.958,4.958,0,0,1,6.89,1.25l9.35,13.52a4.882,4.882,0,0,1,.79,3.7h0a4.89,4.89,0,0,1-2.04,3.19l-68.18,47.3a5,5,0,0,1-3.71.8,4.946,4.946,0,0,1-3.18-2.05l-9.36-13.52a4.972,4.972,0,0,1,1.26-6.89h0Zm69.18-45.86-68.19,47.3a3.225,3.225,0,0,0-.81,4.46l9.36,13.51a3.215,3.215,0,0,0,4.45.81l68.18-47.3a3.152,3.152,0,0,0,1.32-2.06h0.01a3.2,3.2,0,0,0-.52-2.4l-9.35-13.51A3.215,3.215,0,0,0,1109.09,9456.61Zm-58.16,46.78a6.135,6.135,0,0,1,9.52,6.14h0a6.129,6.129,0,1,1-9.52-6.14h0Zm4.27,0.73a4.377,4.377,0,1,0,3.53,5.09h0A4.373,4.373,0,0,0,1055.2,9504.12Zm4.11-14.05,14,20.22-1.44,1-14-20.22Zm17.67-12.26,14,20.22-1.44,1-14-20.22Zm17.67-12.25,14,20.21-1.44,1-13.99-20.22Zm-49.09,32.99,47.63-55.06a4.961,4.961,0,0,1,6.98-.5l12.41,10.77a4.288,4.288,0,0,1,.74.8,4.339,4.339,0,0,1,.55.95l-1.6.7a3.417,3.417,0,0,0-.35-0.62,3.893,3.893,0,0,0-.48-0.52l-12.41-10.76a3.231,3.231,0,0,0-2.33-.77,3.168,3.168,0,0,0-2.19,1.1l-47.63,55.05Zm-1.64,1.44,31.93-64.1h0a4.962,4.962,0,0,1,6.64-2.22h0l14.7,7.33a4.812,4.812,0,0,1,.9.59,4.964,4.964,0,0,1,.76.76l-1.37,1.09a3.314,3.314,0,0,0-.49-0.5,3.378,3.378,0,0,0-.58-0.37l-14.7-7.34h0a3.2,3.2,0,0,0-4.29,1.44h0l-31.94,64.1Zm-1.41.93,13.86-68.11a4.962,4.962,0,0,1,5.83-3.87l16.1,3.28a5.047,5.047,0,0,1,1.95.87l-1.04,1.41a3.079,3.079,0,0,0-.6-0.36,3.189,3.189,0,0,0-.66-0.21l-16.09-3.28a3.207,3.207,0,0,0-3.78,2.5l-13.85,68.11Z" transform="translate(0 -8928)"/>
</svg>
