<svg xmlns="http://www.w3.org/2000/svg" width="30" height="29" viewBox="0 0 30 29">
  <defs>
    <style>
      .cls-1 {
        fill: #fff;
        fill-rule: evenodd;
      }
    </style>
  </defs>
  <path id="Mag_Glass_copie" data-name="Mag Glass copie" class="cls-1" d="M2003.27,213.2a11.365,11.365,0,0,1,15.85,0,10.832,10.832,0,0,1,0,15.54,11.367,11.367,0,0,1-15.85,0A10.832,10.832,0,0,1,2003.27,213.2Zm2.83,2.774a7.305,7.305,0,0,1,10.19,0,6.957,6.957,0,0,1,0,9.991,7.309,7.309,0,0,1-10.19,0A6.974,6.974,0,0,1,2006.1,215.973Zm10.43,9.9a3.382,3.382,0,0,1,4.57-.178l8.09,7.933a3.219,3.219,0,0,1-.18,4.476,3.155,3.155,0,0,1-4.39,0l-8.09-7.933A3,3,0,0,1,2016.53,225.87Z" transform="translate(-2000 -210)"/>
</svg>
