<svg xmlns="http://www.w3.org/2000/svg" width="157.125" height="130.125" viewBox="0 0 157.125 130.125">
  <defs>
    <style>
      .cls-1 {
        fill: #f75c00;
        fill-rule: evenodd;
      }
    </style>
  </defs>
  <path id="Shape_4_copy_3" data-name="Shape 4 copy 3" class="cls-1" d="M264.627,852.489a4.381,4.381,0,1,1,4.382-4.381A4.379,4.379,0,0,1,264.627,852.489Zm4.382,36.068a4.381,4.381,0,1,0-4.382,4.383A4.383,4.383,0,0,0,269.009,888.557Zm0,40.45a4.381,4.381,0,1,0-4.382,4.382A4.382,4.382,0,0,0,269.009,929.007Zm0,40.449a4.381,4.381,0,1,0-4.382,4.381A4.382,4.382,0,0,0,269.009,969.456ZM306.1,848.108a4.38,4.38,0,1,0-4.38,4.381A4.381,4.381,0,0,0,306.1,848.108Zm0,40.449a4.38,4.38,0,1,0-4.38,4.383A4.382,4.382,0,0,0,306.1,888.557Zm0,40.45a4.38,4.38,0,1,0-4.38,4.382A4.381,4.381,0,0,0,306.1,929.007Zm0,40.449a4.38,4.38,0,1,0-4.38,4.381A4.381,4.381,0,0,0,306.1,969.456ZM343.2,848.108a4.38,4.38,0,1,0-4.38,4.381A4.38,4.38,0,0,0,343.2,848.108Zm0,40.449a4.38,4.38,0,1,0-4.38,4.383A4.382,4.382,0,0,0,343.2,888.557Zm0,40.45a4.38,4.38,0,1,0-4.38,4.382A4.38,4.38,0,0,0,343.2,929.007Zm0,40.449a4.38,4.38,0,1,0-4.38,4.381A4.38,4.38,0,0,0,343.2,969.456Zm37.1-121.348a4.38,4.38,0,1,0-4.379,4.381A4.38,4.38,0,0,0,380.294,848.108Zm0,40.449a4.38,4.38,0,1,0-4.379,4.383A4.382,4.382,0,0,0,380.294,888.557Zm0,40.45a4.38,4.38,0,1,0-4.379,4.382A4.38,4.38,0,0,0,380.294,929.007Zm0,40.449a4.38,4.38,0,1,0-4.379,4.381A4.38,4.38,0,0,0,380.294,969.456Zm37.1-121.348a4.38,4.38,0,1,0-4.381,4.381A4.38,4.38,0,0,0,417.389,848.108Zm0,40.449a4.38,4.38,0,1,0-4.381,4.383A4.382,4.382,0,0,0,417.389,888.557Zm0,40.45a4.38,4.38,0,1,0-4.381,4.382A4.38,4.38,0,0,0,417.389,929.007Zm0,40.449a4.38,4.38,0,1,0-4.381,4.381A4.38,4.38,0,0,0,417.389,969.456Z" transform="translate(-260.25 -843.719)"/>
</svg>
